simulation
nRows=24
nColumns=15
endheader
time  TH_x TH_y TH_z SC_y  SC_z  SC_x  AC_y  AC_z  AC_x  GH_y  GH_z  GH_yy  EL_x  PS_y
0.250000  0.000000  0.000000  0.000000  -13.353605  3.714932  24.002924  44.636179  -6.314079  -16.910957  62.907311  2.840094  -37.752391  11.411294  92.007821
0.250674  0.000000  0.000000  0.000000  -13.353605  3.714932  27.931496  44.257322  -9.065598  -19.740758  62.907311  2.840094  -37.752391  11.411294  92.007821
0.251348  0.000000  0.000000  0.000000  -13.353605  3.714932  31.860067  43.736897  -11.795064  -22.614089  62.907311  2.840094  -37.752391  11.411294  92.007821
0.252022  0.000000  0.000000  0.000000  -13.353605  3.714932  35.788639  43.070059  -14.495118  -25.544874  62.907311  2.840094  -37.752391  11.411294  92.007821
0.252695  0.000000  0.000000  0.000000  -27.120018  17.264228  -19.211361  32.812170  26.663482  33.235070  103.780024  23.060911  20.506103  11.306478  93.055691
0.253369  0.000000  0.000000  0.000000  -27.120018  17.264228  -15.282790  34.379016  24.488903  29.607337  103.780024  23.060911  20.506103  11.306478  93.055691
0.254043  0.000000  0.000000  0.000000  -27.120018  17.264228  -11.354218  35.768257  22.230674  26.105209  103.780024  23.060911  20.506103  11.306478  93.055691
0.254717  0.000000  0.000000  0.000000  -27.120018  17.264228  -7.425647  36.987046  19.899893  22.715875  103.780024  23.060911  20.506103  11.306478  93.055691
0.255391  0.000000  0.000000  0.000000  -27.120018  17.264228  -3.497076  38.042437  17.506840  19.426202  103.780024  23.060911  20.506103  11.306478  93.055691
0.256065  0.000000  0.000000  0.000000  -27.120018  17.264228  0.431496  38.941026  15.061033  16.223015  103.780024  23.060911  20.506103  11.306478  93.055691
0.256739  0.000000  0.000000  0.000000  -27.120018  17.264228  4.360067  39.688788  12.571319  13.093243  103.780024  23.060911  20.506103  11.306478  93.055691
0.257412  0.000000  0.000000  0.000000  -27.120018  17.264228  8.288639  40.290943  10.046001  10.023973  103.780024  23.060911  20.506103  11.306478  93.055691
0.258086  0.000000  0.000000  0.000000  -27.120018  17.264228  12.217210  40.751803  7.492883  7.002538  103.780024  23.060911  20.506103  11.306478  93.055691
0.258760  0.000000  0.000000  0.000000  -27.120018  17.264228  16.145782  41.074769  4.919412  4.016455  103.780024  23.060911  20.506103  11.306478  93.055691
0.259434  0.000000  0.000000  0.000000  -27.120018  17.264228  20.074353  41.262254  2.332750  1.053435  103.780024  23.060911  20.506103  11.306478  93.055691
0.260108  0.000000  0.000000  0.000000  -27.120018  17.264228  24.002924  41.315672  -0.260119  -1.898690  103.780024  23.060911  20.506103  11.306478  93.055691
0.260782  0.000000  0.000000  0.000000  -27.120018  17.264228  27.931496  41.235439  -2.852305  -4.852040  103.780024  23.060911  20.506103  11.306478  93.055691
0.261456  0.000000  0.000000  0.000000  -27.120018  17.264228  31.860067  41.020914  -5.436876  -7.818695  103.780024  23.060911  20.506103  11.306478  93.055691
0.262129  0.000000  0.000000  0.000000  -27.120018  17.264228  35.788639  40.670514  -8.006845  -10.810878  103.780024  23.060911  20.506103  11.306478  93.055691
0.262803  0.000000  0.000000  0.000000  -9.160995  12.861587  -17.876500  31.722031  20.728082  14.667712  58.610624  15.949946  -10.478314  16.584313  96.806425
0.263477  0.000000  0.000000  0.000000  -9.160995  12.861587  -13.947928  32.909837  18.627224  11.141841  58.610624  15.949946  -10.478314  16.584313  96.806425
0.264151  0.000000  0.000000  0.000000  -9.160995  12.861587  -10.019357  33.946852  16.462332  7.703339  58.610624  15.949946  -10.478314  16.584313  96.806425
0.264825  0.000000  0.000000  0.000000  -9.160995  12.861587  -6.090785  34.837261  14.242606  4.341727  58.610624  15.949946  -10.478314  16.584313  96.806425
0.265499  0.000000  0.000000  0.000000  -9.160995  12.861587  -2.162214  35.585062  11.976776  1.046262  58.610624  15.949946  -10.478314  16.584313  96.806425
